<?xml version="1.0" encoding="UTF-8" standalone="no"?>
<svg width="213.783mm" height="63.5mm"
 xmlns="http://www.w3.org/2000/svg" xmlns:xlink="http://www.w3.org/1999/xlink"  version="1.2" baseProfile="tiny">
<title>Qt SVG Document</title>
<desc>Generated with Qt</desc>
<defs>
</defs>
<g fill="none" stroke="black" stroke-width="1" fill-rule="evenodd" stroke-linecap="square" stroke-linejoin="bevel" >

<g fill="none" stroke="#000000" stroke-opacity="1" stroke-width="1" stroke-linecap="square" stroke-linejoin="bevel" transform="matrix(1,0,0,1,0,0)"
font-family="Ubuntu" font-size="11" font-weight="400" font-style="normal" 
>
</g>

<g fill="none" stroke="#000000" stroke-opacity="1" stroke-width="1" stroke-linecap="square" stroke-linejoin="bevel" transform="matrix(1,0,0,1,0,0)"
font-family="Ubuntu" font-size="11" font-weight="400" font-style="normal" 
>
</g>

<g fill="none" stroke="#000000" stroke-opacity="1" stroke-width="1" stroke-linecap="square" stroke-linejoin="bevel" transform="matrix(2,0,0,2,0.0016,180)"
font-family="Ubuntu" font-size="11" font-weight="400" font-style="normal" 
>
</g>

<g fill="#ffffff" fill-opacity="1" stroke="none" transform="matrix(2,0,0,2,0.0016,180)"
font-family="Ubuntu" font-size="11" font-weight="400" font-style="normal" 
>
<rect x="-0.0008" y="-90" width="302.892" height="90"/>
</g>

<g fill="none" stroke="#000000" stroke-opacity="1" stroke-width="1" stroke-linecap="square" stroke-linejoin="bevel" transform="matrix(2,0,0,2,0.0016,180)"
font-family="Ubuntu" font-size="11" font-weight="400" font-style="normal" 
>
</g>

<g fill="none" stroke="#000000" stroke-opacity="1" stroke-width="1" stroke-linecap="square" stroke-linejoin="bevel" transform="matrix(2,0,0,2,0.0016,180)"
font-family="Ubuntu" font-size="11" font-weight="400" font-style="normal" 
>
</g>

<g fill="none" stroke="#000000" stroke-opacity="1" stroke-width="1" stroke-linecap="square" stroke-linejoin="bevel" transform="matrix(2,0,0,2,0.0016,180)"
font-family="Ubuntu" font-size="11" font-weight="400" font-style="normal" 
>
</g>

<g fill="none" stroke="#000000" stroke-opacity="1" stroke-width="1" stroke-linecap="square" stroke-linejoin="bevel" transform="matrix(2,0,0,2,0.0016,180)"
font-family="Ubuntu" font-size="11" font-weight="400" font-style="normal" 
>
</g>

<g fill="none" stroke="#000000" stroke-opacity="1" stroke-width="1" stroke-linecap="square" stroke-linejoin="round" transform="matrix(2,0,0,2,0.0016,180)"
font-family="Ubuntu" font-size="11" font-weight="400" font-style="normal" 
>
<rect x="220.89" y="-89.5" width="80" height="35"/>
</g>

<g fill="none" stroke="#000000" stroke-opacity="1" stroke-width="1" stroke-linecap="square" stroke-linejoin="bevel" transform="matrix(2,0,0,2,0.0016,180)"
font-family="Ubuntu" font-size="11" font-weight="400" font-style="normal" 
>
</g>

<g fill="none" stroke="#000000" stroke-opacity="1" stroke-width="1" stroke-linecap="square" stroke-linejoin="bevel" transform="matrix(2,0,0,2,455.828,22)"
font-family="Ubuntu" font-size="11" font-weight="400" font-style="normal" 
>
</g>

<g fill="none" stroke="#000000" stroke-opacity="1" stroke-width="1" stroke-linecap="square" stroke-linejoin="bevel" transform="matrix(2,0,0,2,455.828,22)"
font-family="sans" font-size="11" font-weight="100" font-style="normal" 
>
</g>

<g fill="#000000" fill-opacity="1" stroke="#000000" stroke-opacity="1" stroke-width="1" stroke-linecap="square" stroke-linejoin="round" transform="matrix(2,0,0,2,455.828,22)"
font-family="sans" font-size="11" font-weight="100" font-style="normal" 
>
<path vector-effect="none" fill-rule="nonzero" d="M2.79688,2.98438 L3.70313,2.98438 L0.90625,12.0156 L0,12.0156 L2.79688,2.98438 M8.70313,5.89063 L8.70313,2.64063 L9.6875,2.64063 L9.6875,11 L8.70313,11 L8.70313,10.0938 C8.49479,10.4583 8.23177,10.7266 7.91406,10.8984 C7.59635,11.0703 7.21354,11.1563 6.76563,11.1563 C6.04688,11.1563 5.45833,10.8672 5,10.2891 C4.54167,9.71094 4.3125,8.94792 4.3125,8 C4.3125,7.05208 4.54167,6.28906 5,5.71094 C5.45833,5.13281 6.04688,4.84375 6.76563,4.84375 C7.21354,4.84375 7.59635,4.92969 7.91406,5.10156 C8.23177,5.27344 8.49479,5.53646 8.70313,5.89063 M5.32813,8 C5.32813,8.72917 5.47917,9.29948 5.78125,9.71094 C6.08333,10.1224 6.49479,10.3281 7.01563,10.3281 C7.53646,10.3281 7.94792,10.1224 8.25,9.71094 C8.55208,9.29948 8.70313,8.72917 8.70313,8 C8.70313,7.27083 8.55208,6.70052 8.25,6.28906 C7.94792,5.8776 7.53646,5.67188 7.01563,5.67188 C6.49479,5.67188 6.08333,5.8776 5.78125,6.28906 C5.47917,6.70052 5.32813,7.27083 5.32813,8 M11.7031,4.98438 L12.7031,4.98438 L12.7031,11 L11.7031,11 L11.7031,4.98438 M11.7031,2.64063 L12.7031,2.64063 L12.7031,3.89063 L11.7031,3.89063 L11.7031,2.64063 M17.4844,7.96875 C16.6927,7.96875 16.1432,8.0625 15.8359,8.25 C15.5286,8.4375 15.375,8.75 15.375,9.1875 C15.375,9.53125 15.4896,9.80729 15.7188,10.0156 C15.9479,10.224 16.2604,10.3281 16.6563,10.3281 C17.2083,10.3281 17.6484,10.1328 17.9766,9.74219 C18.3047,9.35156 18.4688,8.83854 18.4688,8.20313 L18.4688,7.96875 L17.4844,7.96875 M19.4531,7.5625 L19.4531,11 L18.4688,11 L18.4688,10.0938 C18.25,10.4583 17.9714,10.7266 17.6328,10.8984 C17.2943,11.0703 16.8802,11.1563 16.3906,11.1563 C15.776,11.1563 15.2865,10.9844 14.9219,10.6406 C14.5573,10.2969 14.375,9.83333 14.375,9.25 C14.375,8.57292 14.6016,8.0625 15.0547,7.71875 C15.5078,7.375 16.1875,7.20313 17.0938,7.20313 L18.4688,7.20313 L18.4688,7.10938 C18.4688,6.65104 18.3203,6.29688 18.0234,6.04688 C17.7266,5.79688 17.3073,5.67188 16.7656,5.67188 C16.4219,5.67188 16.0859,5.71354 15.7578,5.79688 C15.4297,5.88021 15.1146,6.00521 14.8125,6.17188 L14.8125,5.26563 C15.1771,5.11979 15.5313,5.01302 15.875,4.94531 C16.2188,4.8776 16.5469,4.84375 16.8594,4.84375 C17.7344,4.84375 18.3854,5.06771 18.8125,5.51563 C19.2396,5.96354 19.4531,6.64583 19.4531,7.5625 M25.4531,7.92188 C25.4531,7.20313 25.3047,6.64844 25.0078,6.25781 C24.7109,5.86719 24.2969,5.67188 23.7656,5.67188 C23.2344,5.67188 22.8203,5.86719 22.5234,6.25781 C22.2266,6.64844 22.0781,7.20313 22.0781,7.92188 C22.0781,8.63021 22.2266,9.18229 22.5234,9.57813 C22.8203,9.97396 23.2344,10.1719 23.7656,10.1719 C24.2969,10.1719 24.7109,9.97396 25.0078,9.57813 C25.3047,9.18229 25.4531,8.63021 25.4531,7.92188 M26.4375,10.25 C26.4375,11.2813 26.2109,12.0443 25.7578,12.5391 C25.3047,13.0339 24.6094,13.2813 23.6719,13.2813 C23.3177,13.2813 22.987,13.2552 22.6797,13.2031 C22.3724,13.151 22.0729,13.0729 21.7813,12.9688 L21.7813,12.0156 C22.0729,12.1719 22.3594,12.2865 22.6406,12.3594 C22.9219,12.4323 23.2135,12.4688 23.5156,12.4688 C24.1615,12.4688 24.6458,12.2995 24.9688,11.9609 C25.2917,11.6224 25.4531,11.1146 25.4531,10.4375 L25.4531,9.9375 C25.2448,10.2917 24.9818,10.5573 24.6641,10.7344 C24.3464,10.9115 23.9635,11 23.5156,11 C22.776,11 22.1823,10.7188 21.7344,10.1563 C21.2865,9.59375 21.0625,8.84896 21.0625,7.92188 C21.0625,6.99479 21.2865,6.25 21.7344,5.6875 C22.1823,5.125 22.776,4.84375 23.5156,4.84375 C23.9635,4.84375 24.3464,4.92969 24.6641,5.10156 C24.9818,5.27344 25.2448,5.53646 25.4531,5.89063 L25.4531,4.98438 L26.4375,4.98438 L26.4375,10.25 M33.4531,7.375 L33.4531,11 L32.4688,11 L32.4688,7.40625 C32.4688,6.83333 32.3594,6.40625 32.1406,6.125 C31.9219,5.84375 31.5885,5.70313 31.1406,5.70313 C30.6094,5.70313 30.1901,5.8724 29.8828,6.21094 C29.5755,6.54948 29.4219,7.01042 29.4219,7.59375 L29.4219,11 L28.4219,11 L28.4219,4.98438 L29.4219,4.98438 L29.4219,5.92188 C29.651,5.55729 29.9271,5.28646 30.25,5.10938 C30.5729,4.93229 30.9427,4.84375 31.3594,4.84375 C32.0469,4.84375 32.5677,5.05729 32.9219,5.48438 C33.276,5.91146 33.4531,6.54167 33.4531,7.375 M37.7656,5.67188 C37.2344,5.67188 36.8151,5.88021 36.5078,6.29688 C36.2005,6.71354 36.0469,7.28125 36.0469,8 C36.0469,8.71875 36.1979,9.28385 36.5,9.69531 C36.8021,10.1068 37.224,10.3125 37.7656,10.3125 C38.2865,10.3125 38.7005,10.1068 39.0078,9.69531 C39.3151,9.28385 39.4688,8.71875 39.4688,8 C39.4688,7.28125 39.3151,6.71354 39.0078,6.29688 C38.7005,5.88021 38.2865,5.67188 37.7656,5.67188 M37.7656,4.84375 C38.6198,4.84375 39.2917,5.1224 39.7813,5.67969 C40.2708,6.23698 40.5156,7.01042 40.5156,8 C40.5156,8.97917 40.2708,9.75 39.7813,10.3125 C39.2917,10.875 38.6198,11.1563 37.7656,11.1563 C36.901,11.1563 36.224,10.875 35.7344,10.3125 C35.2448,9.75 35,8.97917 35,8 C35,7.01042 35.2448,6.23698 35.7344,5.67969 C36.224,5.1224 36.901,4.84375 37.7656,4.84375 M45.9844,5.15625 L45.9844,6.09375 C45.7031,5.94792 45.4115,5.84115 45.1094,5.77344 C44.8073,5.70573 44.4948,5.67188 44.1719,5.67188 C43.6823,5.67188 43.3151,5.7474 43.0703,5.89844 C42.8255,6.04948 42.7031,6.27083 42.7031,6.5625 C42.7031,6.79167 42.7917,6.97135 42.9688,7.10156 C43.1458,7.23177 43.5,7.35938 44.0313,7.48438 L44.3594,7.5625 C45.0677,7.70833 45.5677,7.91927 45.8594,8.19531 C46.151,8.47135 46.2969,8.85417 46.2969,9.34375 C46.2969,9.89583 46.0781,10.3359 45.6406,10.6641 C45.2031,10.9922 44.5938,11.1563 43.8125,11.1563 C43.4896,11.1563 43.1536,11.125 42.8047,11.0625 C42.4557,11 42.0885,10.9063 41.7031,10.7813 L41.7031,9.76563 C42.0677,9.95313 42.4271,10.0938 42.7813,10.1875 C43.1354,10.2813 43.4896,10.3281 43.8438,10.3281 C44.3021,10.3281 44.6563,10.2474 44.9063,10.0859 C45.1563,9.92448 45.2813,9.70313 45.2813,9.42188 C45.2813,9.15104 45.1927,8.94271 45.0156,8.79688 C44.8385,8.65104 44.4427,8.51563 43.8281,8.39063 L43.4844,8.29688 C42.8698,8.17188 42.4271,7.97656 42.1563,7.71094 C41.8854,7.44531 41.75,7.07813 41.75,6.60938 C41.75,6.04688 41.9505,5.61198 42.3516,5.30469 C42.7526,4.9974 43.3229,4.84375 44.0625,4.84375 C44.4271,4.84375 44.7708,4.86979 45.0938,4.92188 C45.4167,4.97396 45.7135,5.05208 45.9844,5.15625 M48.8438,3.28125 L48.8438,4.98438 L50.875,4.98438 L50.875,5.75 L48.8438,5.75 L48.8438,9.01563 C48.8438,9.50521 48.9115,9.82031 49.0469,9.96094 C49.1823,10.1016 49.4531,10.1719 49.8594,10.1719 L50.875,10.1719 L50.875,11 L49.8594,11 C49.099,11 48.5729,10.8568 48.2813,10.5703 C47.9896,10.2839 47.8438,9.76563 47.8438,9.01563 L47.8438,5.75 L47.125,5.75 L47.125,4.98438 L47.8438,4.98438 L47.8438,3.28125 L48.8438,3.28125 M52.1719,4.98438 L53.1719,4.98438 L53.1719,11 L52.1719,11 L52.1719,4.98438 M52.1719,2.64063 L53.1719,2.64063 L53.1719,3.89063 L52.1719,3.89063 L52.1719,2.64063 M59.5469,5.21875 L59.5469,6.14063 C59.276,5.98438 59,5.86719 58.7188,5.78906 C58.4375,5.71094 58.151,5.67188 57.8594,5.67188 C57.224,5.67188 56.7292,5.875 56.375,6.28125 C56.0208,6.6875 55.8438,7.26042 55.8438,8 C55.8438,8.72917 56.0208,9.29688 56.375,9.70313 C56.7292,10.1094 57.224,10.3125 57.8594,10.3125 C58.151,10.3125 58.4375,10.276 58.7188,10.2031 C59,10.1302 59.276,10.0156 59.5469,9.85938 L59.5469,10.7656 C59.276,10.901 58.9922,11 58.6953,11.0625 C58.3984,11.125 58.0833,11.1563 57.75,11.1563 C56.8438,11.1563 56.125,10.8724 55.5938,10.3047 C55.0625,9.73698 54.7969,8.96875 54.7969,8 C54.7969,7.02083 55.0651,6.25 55.6016,5.6875 C56.138,5.125 56.875,4.84375 57.8125,4.84375 C58.125,4.84375 58.4245,4.875 58.7109,4.9375 C58.9974,5 59.276,5.09375 59.5469,5.21875 M65.1094,5.15625 L65.1094,6.09375 C64.8281,5.94792 64.5365,5.84115 64.2344,5.77344 C63.9323,5.70573 63.6198,5.67188 63.2969,5.67188 C62.8073,5.67188 62.4401,5.7474 62.1953,5.89844 C61.9505,6.04948 61.8281,6.27083 61.8281,6.5625 C61.8281,6.79167 61.9167,6.97135 62.0938,7.10156 C62.2708,7.23177 62.625,7.35938 63.1563,7.48438 L63.4844,7.5625 C64.1927,7.70833 64.6927,7.91927 64.9844,8.19531 C65.276,8.47135 65.4219,8.85417 65.4219,9.34375 C65.4219,9.89583 65.2031,10.3359 64.7656,10.6641 C64.3281,10.9922 63.7188,11.1563 62.9375,11.1563 C62.6146,11.1563 62.2786,11.125 61.9297,11.0625 C61.5807,11 61.2135,10.9063 60.8281,10.7813 L60.8281,9.76563 C61.1927,9.95313 61.5521,10.0938 61.9063,10.1875 C62.2604,10.2813 62.6146,10.3281 62.9688,10.3281 C63.4271,10.3281 63.7813,10.2474 64.0313,10.0859 C64.2813,9.92448 64.4063,9.70313 64.4063,9.42188 C64.4063,9.15104 64.3177,8.94271 64.1406,8.79688 C63.9635,8.65104 63.5677,8.51563 62.9531,8.39063 L62.6094,8.29688 C61.9948,8.17188 61.5521,7.97656 61.2813,7.71094 C61.0104,7.44531 60.875,7.07813 60.875,6.60938 C60.875,6.04688 61.0755,5.61198 61.4766,5.30469 C61.8776,4.9974 62.4479,4.84375 63.1875,4.84375 C63.5521,4.84375 63.8958,4.86979 64.2188,4.92188 C64.5417,4.97396 64.8385,5.05208 65.1094,5.15625 "/>
</g>

<g fill="none" stroke="#000000" stroke-opacity="1" stroke-width="1" stroke-linecap="square" stroke-linejoin="bevel" transform="matrix(2,0,0,2,455.828,22)"
font-family="sans" font-size="11" font-weight="100" font-style="normal" 
>
</g>

<g fill="none" stroke="#000000" stroke-opacity="1" stroke-width="1" stroke-linecap="square" stroke-linejoin="bevel" transform="matrix(2,0,0,2,455.828,22)"
font-family="Ubuntu" font-size="11" font-weight="400" font-style="normal" 
>
</g>

<g fill="none" stroke="#000000" stroke-opacity="1" stroke-width="1" stroke-linecap="square" stroke-linejoin="bevel" transform="matrix(2,0,0,2,0.0016,180)"
font-family="Ubuntu" font-size="11" font-weight="400" font-style="normal" 
>
</g>

<g fill="none" stroke="#000000" stroke-opacity="1" stroke-width="1" stroke-linecap="square" stroke-linejoin="bevel" transform="matrix(2,0,0,2,0.0016,180)"
font-family="Ubuntu" font-size="11" font-weight="400" font-style="normal" 
>
</g>

<g fill="none" stroke="#000000" stroke-opacity="1" stroke-width="1" stroke-linecap="square" stroke-linejoin="bevel" transform="matrix(2,0,0,2,0.0016,180)"
font-family="Ubuntu" font-size="11" font-weight="400" font-style="normal" 
>
</g>

<g fill="none" stroke="#000000" stroke-opacity="1" stroke-width="1" stroke-linecap="square" stroke-linejoin="round" transform="matrix(2,0,0,2,0.0016,180)"
font-family="Ubuntu" font-size="11" font-weight="400" font-style="normal" 
>
<rect x="15" y="-89.5" width="53" height="35"/>
</g>

<g fill="none" stroke="#000000" stroke-opacity="1" stroke-width="1" stroke-linecap="square" stroke-linejoin="bevel" transform="matrix(2,0,0,2,0.0016,180)"
font-family="Ubuntu" font-size="11" font-weight="400" font-style="normal" 
>
</g>

<g fill="none" stroke="#000000" stroke-opacity="1" stroke-width="1" stroke-linecap="square" stroke-linejoin="bevel" transform="matrix(2,0,0,2,45.9547,22)"
font-family="Ubuntu" font-size="11" font-weight="400" font-style="normal" 
>
</g>

<g fill="none" stroke="#000000" stroke-opacity="1" stroke-width="1" stroke-linecap="square" stroke-linejoin="bevel" transform="matrix(2,0,0,2,45.9547,22)"
font-family="sans" font-size="11" font-weight="100" font-style="normal" 
>
</g>

<g fill="#000000" fill-opacity="1" stroke="#000000" stroke-opacity="1" stroke-width="1" stroke-linecap="square" stroke-linejoin="round" transform="matrix(2,0,0,2,45.9547,22)"
font-family="sans" font-size="11" font-weight="100" font-style="normal" 
>
<path vector-effect="none" fill-rule="nonzero" d="M2.79688,2.98438 L3.70313,2.98438 L0.90625,12.0156 L0,12.0156 L2.79688,2.98438 M8.57813,5.15625 L8.57813,6.09375 C8.29688,5.94792 8.00521,5.84115 7.70313,5.77344 C7.40104,5.70573 7.08854,5.67188 6.76563,5.67188 C6.27604,5.67188 5.90885,5.7474 5.66406,5.89844 C5.41927,6.04948 5.29688,6.27083 5.29688,6.5625 C5.29688,6.79167 5.38542,6.97135 5.5625,7.10156 C5.73958,7.23177 6.09375,7.35938 6.625,7.48438 L6.95313,7.5625 C7.66146,7.70833 8.16146,7.91927 8.45313,8.19531 C8.74479,8.47135 8.89063,8.85417 8.89063,9.34375 C8.89063,9.89583 8.67188,10.3359 8.23438,10.6641 C7.79688,10.9922 7.1875,11.1563 6.40625,11.1563 C6.08333,11.1563 5.7474,11.125 5.39844,11.0625 C5.04948,11 4.68229,10.9063 4.29688,10.7813 L4.29688,9.76563 C4.66146,9.95313 5.02083,10.0938 5.375,10.1875 C5.72917,10.2813 6.08333,10.3281 6.4375,10.3281 C6.89583,10.3281 7.25,10.2474 7.5,10.0859 C7.75,9.92448 7.875,9.70313 7.875,9.42188 C7.875,9.15104 7.78646,8.94271 7.60938,8.79688 C7.43229,8.65104 7.03646,8.51563 6.42188,8.39063 L6.07813,8.29688 C5.46354,8.17188 5.02083,7.97656 4.75,7.71094 C4.47917,7.44531 4.34375,7.07813 4.34375,6.60938 C4.34375,6.04688 4.54427,5.61198 4.94531,5.30469 C5.34635,4.9974 5.91667,4.84375 6.65625,4.84375 C7.02083,4.84375 7.36458,4.86979 7.6875,4.92188 C8.01042,4.97396 8.30729,5.05208 8.57813,5.15625 M12.7969,5.67188 C12.2656,5.67188 11.8464,5.88021 11.5391,6.29688 C11.2318,6.71354 11.0781,7.28125 11.0781,8 C11.0781,8.71875 11.2292,9.28385 11.5313,9.69531 C11.8333,10.1068 12.2552,10.3125 12.7969,10.3125 C13.3177,10.3125 13.7318,10.1068 14.0391,9.69531 C14.3464,9.28385 14.5,8.71875 14.5,8 C14.5,7.28125 14.3464,6.71354 14.0391,6.29688 C13.7318,5.88021 13.3177,5.67188 12.7969,5.67188 M12.7969,4.84375 C13.651,4.84375 14.3229,5.1224 14.8125,5.67969 C15.3021,6.23698 15.5469,7.01042 15.5469,8 C15.5469,8.97917 15.3021,9.75 14.8125,10.3125 C14.3229,10.875 13.651,11.1563 12.7969,11.1563 C11.9323,11.1563 11.2552,10.875 10.7656,10.3125 C10.276,9.75 10.0313,8.97917 10.0313,8 C10.0313,7.01042 10.276,6.23698 10.7656,5.67969 C11.2552,5.1224 11.9323,4.84375 12.7969,4.84375 M17.0781,8.625 L17.0781,4.98438 L18.0625,4.98438 L18.0625,8.59375 C18.0625,9.15625 18.1745,9.58073 18.3984,9.86719 C18.6224,10.1536 18.9531,10.2969 19.3906,10.2969 C19.9323,10.2969 20.3568,10.1276 20.6641,9.78906 C20.9714,9.45052 21.125,8.98438 21.125,8.39063 L21.125,4.98438 L22.1094,4.98438 L22.1094,11 L21.125,11 L21.125,10.0781 C20.8854,10.4427 20.6068,10.7135 20.2891,10.8906 C19.9714,11.0677 19.6042,11.1563 19.1875,11.1563 C18.5,11.1563 17.9766,10.9401 17.6172,10.5078 C17.2578,10.0755 17.0781,9.44792 17.0781,8.625 M29.1406,7.375 L29.1406,11 L28.1563,11 L28.1563,7.40625 C28.1563,6.83333 28.0469,6.40625 27.8281,6.125 C27.6094,5.84375 27.276,5.70313 26.8281,5.70313 C26.2969,5.70313 25.8776,5.8724 25.5703,6.21094 C25.263,6.54948 25.1094,7.01042 25.1094,7.59375 L25.1094,11 L24.1094,11 L24.1094,4.98438 L25.1094,4.98438 L25.1094,5.92188 C25.3385,5.55729 25.6146,5.28646 25.9375,5.10938 C26.2604,4.93229 26.6302,4.84375 27.0469,4.84375 C27.7344,4.84375 28.2552,5.05729 28.6094,5.48438 C28.9635,5.91146 29.1406,6.54167 29.1406,7.375 M35.0781,5.89063 L35.0781,2.64063 L36.0625,2.64063 L36.0625,11 L35.0781,11 L35.0781,10.0938 C34.8698,10.4583 34.6068,10.7266 34.2891,10.8984 C33.9714,11.0703 33.5885,11.1563 33.1406,11.1563 C32.4219,11.1563 31.8333,10.8672 31.375,10.2891 C30.9167,9.71094 30.6875,8.94792 30.6875,8 C30.6875,7.05208 30.9167,6.28906 31.375,5.71094 C31.8333,5.13281 32.4219,4.84375 33.1406,4.84375 C33.5885,4.84375 33.9714,4.92969 34.2891,5.10156 C34.6068,5.27344 34.8698,5.53646 35.0781,5.89063 M31.7031,8 C31.7031,8.72917 31.8542,9.29948 32.1563,9.71094 C32.4583,10.1224 32.8698,10.3281 33.3906,10.3281 C33.9115,10.3281 34.3229,10.1224 34.625,9.71094 C34.9271,9.29948 35.0781,8.72917 35.0781,8 C35.0781,7.27083 34.9271,6.70052 34.625,6.28906 C34.3229,5.8776 33.9115,5.67188 33.3906,5.67188 C32.8698,5.67188 32.4583,5.8776 32.1563,6.28906 C31.8542,6.70052 31.7031,7.27083 31.7031,8 "/>
</g>

<g fill="none" stroke="#000000" stroke-opacity="1" stroke-width="1" stroke-linecap="square" stroke-linejoin="bevel" transform="matrix(2,0,0,2,45.9547,22)"
font-family="sans" font-size="11" font-weight="100" font-style="normal" 
>
</g>

<g fill="none" stroke="#000000" stroke-opacity="1" stroke-width="1" stroke-linecap="square" stroke-linejoin="bevel" transform="matrix(2,0,0,2,45.9547,22)"
font-family="Ubuntu" font-size="11" font-weight="400" font-style="normal" 
>
</g>

<g fill="none" stroke="#000000" stroke-opacity="1" stroke-width="1" stroke-linecap="square" stroke-linejoin="bevel" transform="matrix(2,0,0,2,0.0016,180)"
font-family="Ubuntu" font-size="11" font-weight="400" font-style="normal" 
>
</g>

<g fill="none" stroke="#000000" stroke-opacity="1" stroke-width="1" stroke-linecap="square" stroke-linejoin="bevel" transform="matrix(2,0,0,2,0.0016,180)"
font-family="Ubuntu" font-size="11" font-weight="400" font-style="normal" 
>
</g>

<g fill="none" stroke="#000000" stroke-opacity="1" stroke-width="1" stroke-linecap="square" stroke-linejoin="bevel" transform="matrix(2,0,0,2,0.0016,180)"
font-family="Ubuntu" font-size="11" font-weight="400" font-style="normal" 
>
</g>

<g fill="none" stroke="#000000" stroke-opacity="1" stroke-width="1" stroke-linecap="square" stroke-linejoin="round" transform="matrix(2,0,0,2,0.0016,180)"
font-family="Ubuntu" font-size="11" font-weight="400" font-style="normal" 
>
<ellipse cx="150.95" cy="-45" rx="53.446" ry="17.5"/>
</g>

<g fill="none" stroke="#000000" stroke-opacity="1" stroke-width="1" stroke-linecap="square" stroke-linejoin="bevel" transform="matrix(2,0,0,2,0.0016,180)"
font-family="Ubuntu" font-size="11" font-weight="400" font-style="normal" 
>
</g>

<g fill="none" stroke="#000000" stroke-opacity="1" stroke-width="1" stroke-linecap="square" stroke-linejoin="bevel" transform="matrix(2,0,0,2,235.448,76)"
font-family="Ubuntu" font-size="11" font-weight="400" font-style="normal" 
>
</g>

<g fill="none" stroke="#000000" stroke-opacity="1" stroke-width="1" stroke-linecap="square" stroke-linejoin="bevel" transform="matrix(2,0,0,2,235.448,76)"
font-family="sans" font-size="11" font-weight="100" font-style="normal" 
>
</g>

<g fill="#000000" fill-opacity="1" stroke="#000000" stroke-opacity="1" stroke-width="1" stroke-linecap="square" stroke-linejoin="round" transform="matrix(2,0,0,2,235.448,76)"
font-family="sans" font-size="11" font-weight="100" font-style="normal" 
>
<path vector-effect="none" fill-rule="nonzero" d="M2.79688,2.98438 L3.70313,2.98438 L0.90625,12.0156 L0,12.0156 L2.79688,2.98438 M8.57813,5.15625 L8.57813,6.09375 C8.29688,5.94792 8.00521,5.84115 7.70313,5.77344 C7.40104,5.70573 7.08854,5.67188 6.76563,5.67188 C6.27604,5.67188 5.90885,5.7474 5.66406,5.89844 C5.41927,6.04948 5.29688,6.27083 5.29688,6.5625 C5.29688,6.79167 5.38542,6.97135 5.5625,7.10156 C5.73958,7.23177 6.09375,7.35938 6.625,7.48438 L6.95313,7.5625 C7.66146,7.70833 8.16146,7.91927 8.45313,8.19531 C8.74479,8.47135 8.89063,8.85417 8.89063,9.34375 C8.89063,9.89583 8.67188,10.3359 8.23438,10.6641 C7.79688,10.9922 7.1875,11.1563 6.40625,11.1563 C6.08333,11.1563 5.7474,11.125 5.39844,11.0625 C5.04948,11 4.68229,10.9063 4.29688,10.7813 L4.29688,9.76563 C4.66146,9.95313 5.02083,10.0938 5.375,10.1875 C5.72917,10.2813 6.08333,10.3281 6.4375,10.3281 C6.89583,10.3281 7.25,10.2474 7.5,10.0859 C7.75,9.92448 7.875,9.70313 7.875,9.42188 C7.875,9.15104 7.78646,8.94271 7.60938,8.79688 C7.43229,8.65104 7.03646,8.51563 6.42188,8.39063 L6.07813,8.29688 C5.46354,8.17188 5.02083,7.97656 4.75,7.71094 C4.47917,7.44531 4.34375,7.07813 4.34375,6.60938 C4.34375,6.04688 4.54427,5.61198 4.94531,5.30469 C5.34635,4.9974 5.91667,4.84375 6.65625,4.84375 C7.02083,4.84375 7.36458,4.86979 7.6875,4.92188 C8.01042,4.97396 8.30729,5.05208 8.57813,5.15625 M15.6094,7.75 L15.6094,8.23438 L11.0625,8.23438 C11.1042,8.91146 11.3073,9.42708 11.6719,9.78125 C12.0365,10.1354 12.5469,10.3125 13.2031,10.3125 C13.5885,10.3125 13.9583,10.2656 14.3125,10.1719 C14.6667,10.0781 15.0208,9.94271 15.375,9.76563 L15.375,10.6875 C15.0208,10.8438 14.6563,10.9609 14.2813,11.0391 C13.9063,11.1172 13.5313,11.1563 13.1563,11.1563 C12.1875,11.1563 11.4245,10.8776 10.8672,10.3203 C10.3099,9.76302 10.0313,9.00521 10.0313,8.04688 C10.0313,7.06771 10.2969,6.28906 10.8281,5.71094 C11.3594,5.13281 12.0781,4.84375 12.9844,4.84375 C13.7865,4.84375 14.4245,5.10417 14.8984,5.625 C15.3724,6.14583 15.6094,6.85417 15.6094,7.75 M14.6094,7.45313 C14.6094,6.91146 14.4609,6.47917 14.1641,6.15625 C13.8672,5.83333 13.474,5.67188 12.9844,5.67188 C12.4323,5.67188 11.9922,5.82813 11.6641,6.14063 C11.3359,6.45313 11.1458,6.89063 11.0938,7.45313 L14.6094,7.45313 M20.7031,5.90625 C20.599,5.84375 20.4818,5.79688 20.3516,5.76563 C20.2214,5.73438 20.0781,5.71875 19.9219,5.71875 C19.3594,5.71875 18.9297,5.90104 18.6328,6.26563 C18.3359,6.63021 18.1875,7.15104 18.1875,7.82813 L18.1875,11 L17.1875,11 L17.1875,4.98438 L18.1875,4.98438 L18.1875,5.92188 C18.3854,5.55729 18.651,5.28646 18.9844,5.10938 C19.3177,4.93229 19.724,4.84375 20.2031,4.84375 C20.276,4.84375 20.3516,4.84635 20.4297,4.85156 C20.5078,4.85677 20.599,4.86979 20.7031,4.89063 L20.7031,5.90625 M21.7344,4.98438 L22.7344,4.98438 L22.7344,11 L21.7344,11 L21.7344,4.98438 M21.7344,2.64063 L22.7344,2.64063 L22.7344,3.89063 L21.7344,3.89063 L21.7344,2.64063 M27.5156,7.96875 C26.724,7.96875 26.1745,8.0625 25.8672,8.25 C25.5599,8.4375 25.4063,8.75 25.4063,9.1875 C25.4063,9.53125 25.5208,9.80729 25.75,10.0156 C25.9792,10.224 26.2917,10.3281 26.6875,10.3281 C27.2396,10.3281 27.6797,10.1328 28.0078,9.74219 C28.3359,9.35156 28.5,8.83854 28.5,8.20313 L28.5,7.96875 L27.5156,7.96875 M29.4844,7.5625 L29.4844,11 L28.5,11 L28.5,10.0938 C28.2813,10.4583 28.0026,10.7266 27.6641,10.8984 C27.3255,11.0703 26.9115,11.1563 26.4219,11.1563 C25.8073,11.1563 25.3177,10.9844 24.9531,10.6406 C24.5885,10.2969 24.4063,9.83333 24.4063,9.25 C24.4063,8.57292 24.6328,8.0625 25.0859,7.71875 C25.5391,7.375 26.2188,7.20313 27.125,7.20313 L28.5,7.20313 L28.5,7.10938 C28.5,6.65104 28.3516,6.29688 28.0547,6.04688 C27.7578,5.79688 27.3385,5.67188 26.7969,5.67188 C26.4531,5.67188 26.1172,5.71354 25.7891,5.79688 C25.4609,5.88021 25.1458,6.00521 24.8438,6.17188 L24.8438,5.26563 C25.2083,5.11979 25.5625,5.01302 25.9063,4.94531 C26.25,4.8776 26.5781,4.84375 26.8906,4.84375 C27.7656,4.84375 28.4167,5.06771 28.8438,5.51563 C29.2708,5.96354 29.4844,6.64583 29.4844,7.5625 M31.5156,2.64063 L32.5156,2.64063 L32.5156,11 L31.5156,11 L31.5156,2.64063 M39.1406,12.8281 L39.1406,13.5938 L33.4219,13.5938 L33.4219,12.8281 L39.1406,12.8281 M45.0625,7.375 L45.0625,11 L44.0781,11 L44.0781,7.40625 C44.0781,6.83333 43.9688,6.40625 43.75,6.125 C43.5313,5.84375 43.1979,5.70313 42.75,5.70313 C42.2188,5.70313 41.7995,5.8724 41.4922,6.21094 C41.1849,6.54948 41.0313,7.01042 41.0313,7.59375 L41.0313,11 L40.0313,11 L40.0313,4.98438 L41.0313,4.98438 L41.0313,5.92188 C41.2604,5.55729 41.5365,5.28646 41.8594,5.10938 C42.1823,4.93229 42.5521,4.84375 42.9688,4.84375 C43.6563,4.84375 44.1771,5.05729 44.5313,5.48438 C44.8854,5.91146 45.0625,6.54167 45.0625,7.375 M49.375,5.67188 C48.8438,5.67188 48.4245,5.88021 48.1172,6.29688 C47.8099,6.71354 47.6563,7.28125 47.6563,8 C47.6563,8.71875 47.8073,9.28385 48.1094,9.69531 C48.4115,10.1068 48.8333,10.3125 49.375,10.3125 C49.8958,10.3125 50.3099,10.1068 50.6172,9.69531 C50.9245,9.28385 51.0781,8.71875 51.0781,8 C51.0781,7.28125 50.9245,6.71354 50.6172,6.29688 C50.3099,5.88021 49.8958,5.67188 49.375,5.67188 M49.375,4.84375 C50.2292,4.84375 50.901,5.1224 51.3906,5.67969 C51.8802,6.23698 52.125,7.01042 52.125,8 C52.125,8.97917 51.8802,9.75 51.3906,10.3125 C50.901,10.875 50.2292,11.1563 49.375,11.1563 C48.5104,11.1563 47.8333,10.875 47.3438,10.3125 C46.8542,9.75 46.6094,8.97917 46.6094,8 C46.6094,7.01042 46.8542,6.23698 47.3438,5.67969 C47.8333,5.1224 48.5104,4.84375 49.375,4.84375 M57.7188,5.89063 L57.7188,2.64063 L58.7031,2.64063 L58.7031,11 L57.7188,11 L57.7188,10.0938 C57.5104,10.4583 57.2474,10.7266 56.9297,10.8984 C56.612,11.0703 56.2292,11.1563 55.7813,11.1563 C55.0625,11.1563 54.474,10.8672 54.0156,10.2891 C53.5573,9.71094 53.3281,8.94792 53.3281,8 C53.3281,7.05208 53.5573,6.28906 54.0156,5.71094 C54.474,5.13281 55.0625,4.84375 55.7813,4.84375 C56.2292,4.84375 56.612,4.92969 56.9297,5.10156 C57.2474,5.27344 57.5104,5.53646 57.7188,5.89063 M54.3438,8 C54.3438,8.72917 54.4948,9.29948 54.7969,9.71094 C55.099,10.1224 55.5104,10.3281 56.0313,10.3281 C56.5521,10.3281 56.9635,10.1224 57.2656,9.71094 C57.5677,9.29948 57.7188,8.72917 57.7188,8 C57.7188,7.27083 57.5677,6.70052 57.2656,6.28906 C56.9635,5.8776 56.5521,5.67188 56.0313,5.67188 C55.5104,5.67188 55.099,5.8776 54.7969,6.28906 C54.4948,6.70052 54.3438,7.27083 54.3438,8 M65.875,7.75 L65.875,8.23438 L61.3281,8.23438 C61.3698,8.91146 61.5729,9.42708 61.9375,9.78125 C62.3021,10.1354 62.8125,10.3125 63.4688,10.3125 C63.8542,10.3125 64.224,10.2656 64.5781,10.1719 C64.9323,10.0781 65.2865,9.94271 65.6406,9.76563 L65.6406,10.6875 C65.2865,10.8438 64.9219,10.9609 64.5469,11.0391 C64.1719,11.1172 63.7969,11.1563 63.4219,11.1563 C62.4531,11.1563 61.6901,10.8776 61.1328,10.3203 C60.5755,9.76302 60.2969,9.00521 60.2969,8.04688 C60.2969,7.06771 60.5625,6.28906 61.0938,5.71094 C61.625,5.13281 62.3438,4.84375 63.25,4.84375 C64.0521,4.84375 64.6901,5.10417 65.1641,5.625 C65.638,6.14583 65.875,6.85417 65.875,7.75 M64.875,7.45313 C64.875,6.91146 64.7266,6.47917 64.4297,6.15625 C64.1328,5.83333 63.7396,5.67188 63.25,5.67188 C62.6979,5.67188 62.2578,5.82813 61.9297,6.14063 C61.6016,6.45313 61.4115,6.89063 61.3594,7.45313 L64.875,7.45313"/>
</g>

<g fill="none" stroke="#000000" stroke-opacity="1" stroke-width="1" stroke-linecap="square" stroke-linejoin="bevel" transform="matrix(2,0,0,2,235.448,76)"
font-family="sans" font-size="11" font-weight="100" font-style="normal" 
>
</g>

<g fill="none" stroke="#000000" stroke-opacity="1" stroke-width="1" stroke-linecap="square" stroke-linejoin="bevel" transform="matrix(2,0,0,2,235.448,76)"
font-family="Ubuntu" font-size="11" font-weight="400" font-style="normal" 
>
</g>

<g fill="none" stroke="#000000" stroke-opacity="1" stroke-width="1" stroke-linecap="square" stroke-linejoin="bevel" transform="matrix(2,0,0,2,0.0016,180)"
font-family="Ubuntu" font-size="11" font-weight="400" font-style="normal" 
>
</g>

<g fill="none" stroke="#000000" stroke-opacity="1" stroke-width="1" stroke-linecap="square" stroke-linejoin="bevel" transform="matrix(2,0,0,2,0.0016,180)"
font-family="Ubuntu" font-size="11" font-weight="400" font-style="normal" 
>
</g>

<g fill="none" stroke="#000000" stroke-opacity="1" stroke-width="1" stroke-linecap="square" stroke-linejoin="bevel" transform="matrix(2,0,0,2,0.0016,180)"
font-family="Ubuntu" font-size="11" font-weight="400" font-style="normal" 
>
</g>

<g fill="none" stroke="#000000" stroke-opacity="1" stroke-width="1" stroke-linecap="square" stroke-linejoin="round" transform="matrix(2,0,0,2,0.0016,180)"
font-family="Ubuntu" font-size="11" font-weight="400" font-style="normal" 
>
<rect x="219.389" y="-35.5" width="83.0024" height="35"/>
</g>

<g fill="none" stroke="#000000" stroke-opacity="1" stroke-width="1" stroke-linecap="square" stroke-linejoin="bevel" transform="matrix(2,0,0,2,0.0016,180)"
font-family="Ubuntu" font-size="11" font-weight="400" font-style="normal" 
>
</g>

<g fill="none" stroke="#000000" stroke-opacity="1" stroke-width="1" stroke-linecap="square" stroke-linejoin="bevel" transform="matrix(2,0,0,2,451.422,130)"
font-family="Ubuntu" font-size="11" font-weight="400" font-style="normal" 
>
</g>

<g fill="none" stroke="#000000" stroke-opacity="1" stroke-width="1" stroke-linecap="square" stroke-linejoin="bevel" transform="matrix(2,0,0,2,451.422,130)"
font-family="sans" font-size="11" font-weight="100" font-style="normal" 
>
</g>

<g fill="#000000" fill-opacity="1" stroke="#000000" stroke-opacity="1" stroke-width="1" stroke-linecap="square" stroke-linejoin="round" transform="matrix(2,0,0,2,451.422,130)"
font-family="sans" font-size="11" font-weight="100" font-style="normal" 
>
<path vector-effect="none" fill-rule="nonzero" d="M2.79688,2.98438 L3.70313,2.98438 L0.90625,12.0156 L0,12.0156 L2.79688,2.98438 M8.57813,5.15625 L8.57813,6.09375 C8.29688,5.94792 8.00521,5.84115 7.70313,5.77344 C7.40104,5.70573 7.08854,5.67188 6.76563,5.67188 C6.27604,5.67188 5.90885,5.7474 5.66406,5.89844 C5.41927,6.04948 5.29688,6.27083 5.29688,6.5625 C5.29688,6.79167 5.38542,6.97135 5.5625,7.10156 C5.73958,7.23177 6.09375,7.35938 6.625,7.48438 L6.95313,7.5625 C7.66146,7.70833 8.16146,7.91927 8.45313,8.19531 C8.74479,8.47135 8.89063,8.85417 8.89063,9.34375 C8.89063,9.89583 8.67188,10.3359 8.23438,10.6641 C7.79688,10.9922 7.1875,11.1563 6.40625,11.1563 C6.08333,11.1563 5.7474,11.125 5.39844,11.0625 C5.04948,11 4.68229,10.9063 4.29688,10.7813 L4.29688,9.76563 C4.66146,9.95313 5.02083,10.0938 5.375,10.1875 C5.72917,10.2813 6.08333,10.3281 6.4375,10.3281 C6.89583,10.3281 7.25,10.2474 7.5,10.0859 C7.75,9.92448 7.875,9.70313 7.875,9.42188 C7.875,9.15104 7.78646,8.94271 7.60938,8.79688 C7.43229,8.65104 7.03646,8.51563 6.42188,8.39063 L6.07813,8.29688 C5.46354,8.17188 5.02083,7.97656 4.75,7.71094 C4.47917,7.44531 4.34375,7.07813 4.34375,6.60938 C4.34375,6.04688 4.54427,5.61198 4.94531,5.30469 C5.34635,4.9974 5.91667,4.84375 6.65625,4.84375 C7.02083,4.84375 7.36458,4.86979 7.6875,4.92188 C8.01042,4.97396 8.30729,5.05208 8.57813,5.15625 M15.6094,7.75 L15.6094,8.23438 L11.0625,8.23438 C11.1042,8.91146 11.3073,9.42708 11.6719,9.78125 C12.0365,10.1354 12.5469,10.3125 13.2031,10.3125 C13.5885,10.3125 13.9583,10.2656 14.3125,10.1719 C14.6667,10.0781 15.0208,9.94271 15.375,9.76563 L15.375,10.6875 C15.0208,10.8438 14.6563,10.9609 14.2813,11.0391 C13.9063,11.1172 13.5313,11.1563 13.1563,11.1563 C12.1875,11.1563 11.4245,10.8776 10.8672,10.3203 C10.3099,9.76302 10.0313,9.00521 10.0313,8.04688 C10.0313,7.06771 10.2969,6.28906 10.8281,5.71094 C11.3594,5.13281 12.0781,4.84375 12.9844,4.84375 C13.7865,4.84375 14.4245,5.10417 14.8984,5.625 C15.3724,6.14583 15.6094,6.85417 15.6094,7.75 M14.6094,7.45313 C14.6094,6.91146 14.4609,6.47917 14.1641,6.15625 C13.8672,5.83333 13.474,5.67188 12.9844,5.67188 C12.4323,5.67188 11.9922,5.82813 11.6641,6.14063 C11.3359,6.45313 11.1458,6.89063 11.0938,7.45313 L14.6094,7.45313 M22.2188,7.375 L22.2188,11 L21.2344,11 L21.2344,7.40625 C21.2344,6.83333 21.125,6.40625 20.9063,6.125 C20.6875,5.84375 20.3542,5.70313 19.9063,5.70313 C19.375,5.70313 18.9557,5.8724 18.6484,6.21094 C18.3411,6.54948 18.1875,7.01042 18.1875,7.59375 L18.1875,11 L17.1875,11 L17.1875,4.98438 L18.1875,4.98438 L18.1875,5.92188 C18.4167,5.55729 18.6927,5.28646 19.0156,5.10938 C19.3385,4.93229 19.7083,4.84375 20.125,4.84375 C20.8125,4.84375 21.3333,5.05729 21.6875,5.48438 C22.0417,5.91146 22.2188,6.54167 22.2188,7.375 M28.0313,5.15625 L28.0313,6.09375 C27.75,5.94792 27.4583,5.84115 27.1563,5.77344 C26.8542,5.70573 26.5417,5.67188 26.2188,5.67188 C25.7292,5.67188 25.362,5.7474 25.1172,5.89844 C24.8724,6.04948 24.75,6.27083 24.75,6.5625 C24.75,6.79167 24.8385,6.97135 25.0156,7.10156 C25.1927,7.23177 25.5469,7.35938 26.0781,7.48438 L26.4063,7.5625 C27.1146,7.70833 27.6146,7.91927 27.9063,8.19531 C28.1979,8.47135 28.3438,8.85417 28.3438,9.34375 C28.3438,9.89583 28.125,10.3359 27.6875,10.6641 C27.25,10.9922 26.6406,11.1563 25.8594,11.1563 C25.5365,11.1563 25.2005,11.125 24.8516,11.0625 C24.5026,11 24.1354,10.9063 23.75,10.7813 L23.75,9.76563 C24.1146,9.95313 24.474,10.0938 24.8281,10.1875 C25.1823,10.2813 25.5365,10.3281 25.8906,10.3281 C26.349,10.3281 26.7031,10.2474 26.9531,10.0859 C27.2031,9.92448 27.3281,9.70313 27.3281,9.42188 C27.3281,9.15104 27.2396,8.94271 27.0625,8.79688 C26.8854,8.65104 26.4896,8.51563 25.875,8.39063 L25.5313,8.29688 C24.9167,8.17188 24.474,7.97656 24.2031,7.71094 C23.9323,7.44531 23.7969,7.07813 23.7969,6.60938 C23.7969,6.04688 23.9974,5.61198 24.3984,5.30469 C24.7995,4.9974 25.3698,4.84375 26.1094,4.84375 C26.474,4.84375 26.8177,4.86979 27.1406,4.92188 C27.4635,4.97396 27.7604,5.05208 28.0313,5.15625 M32.25,5.67188 C31.7188,5.67188 31.2995,5.88021 30.9922,6.29688 C30.6849,6.71354 30.5313,7.28125 30.5313,8 C30.5313,8.71875 30.6823,9.28385 30.9844,9.69531 C31.2865,10.1068 31.7083,10.3125 32.25,10.3125 C32.7708,10.3125 33.1849,10.1068 33.4922,9.69531 C33.7995,9.28385 33.9531,8.71875 33.9531,8 C33.9531,7.28125 33.7995,6.71354 33.4922,6.29688 C33.1849,5.88021 32.7708,5.67188 32.25,5.67188 M32.25,4.84375 C33.1042,4.84375 33.776,5.1224 34.2656,5.67969 C34.7552,6.23698 35,7.01042 35,8 C35,8.97917 34.7552,9.75 34.2656,10.3125 C33.776,10.875 33.1042,11.1563 32.25,11.1563 C31.3854,11.1563 30.7083,10.875 30.2188,10.3125 C29.7292,9.75 29.4844,8.97917 29.4844,8 C29.4844,7.01042 29.7292,6.23698 30.2188,5.67969 C30.7083,5.1224 31.3854,4.84375 32.25,4.84375 M40.1094,5.90625 C40.0052,5.84375 39.888,5.79688 39.7578,5.76563 C39.6276,5.73438 39.4844,5.71875 39.3281,5.71875 C38.7656,5.71875 38.3359,5.90104 38.0391,6.26563 C37.7422,6.63021 37.5938,7.15104 37.5938,7.82813 L37.5938,11 L36.5938,11 L36.5938,4.98438 L37.5938,4.98438 L37.5938,5.92188 C37.7917,5.55729 38.0573,5.28646 38.3906,5.10938 C38.724,4.93229 39.1302,4.84375 39.6094,4.84375 C39.6823,4.84375 39.7578,4.84635 39.8359,4.85156 C39.9141,4.85677 40.0052,4.86979 40.1094,4.89063 L40.1094,5.90625 M45.7188,12.8281 L45.7188,13.5938 L40,13.5938 L40,12.8281 L45.7188,12.8281 M50.6094,5.89063 L50.6094,2.64063 L51.5938,2.64063 L51.5938,11 L50.6094,11 L50.6094,10.0938 C50.401,10.4583 50.138,10.7266 49.8203,10.8984 C49.5026,11.0703 49.1198,11.1563 48.6719,11.1563 C47.9531,11.1563 47.3646,10.8672 46.9063,10.2891 C46.4479,9.71094 46.2188,8.94792 46.2188,8 C46.2188,7.05208 46.4479,6.28906 46.9063,5.71094 C47.3646,5.13281 47.9531,4.84375 48.6719,4.84375 C49.1198,4.84375 49.5026,4.92969 49.8203,5.10156 C50.138,5.27344 50.401,5.53646 50.6094,5.89063 M47.2344,8 C47.2344,8.72917 47.3854,9.29948 47.6875,9.71094 C47.9896,10.1224 48.401,10.3281 48.9219,10.3281 C49.4427,10.3281 49.8542,10.1224 50.1563,9.71094 C50.4583,9.29948 50.6094,8.72917 50.6094,8 C50.6094,7.27083 50.4583,6.70052 50.1563,6.28906 C49.8542,5.8776 49.4427,5.67188 48.9219,5.67188 C48.401,5.67188 47.9896,5.8776 47.6875,6.28906 C47.3854,6.70052 47.2344,7.27083 47.2344,8 M56.3438,7.96875 C55.5521,7.96875 55.0026,8.0625 54.6953,8.25 C54.388,8.4375 54.2344,8.75 54.2344,9.1875 C54.2344,9.53125 54.349,9.80729 54.5781,10.0156 C54.8073,10.224 55.1198,10.3281 55.5156,10.3281 C56.0677,10.3281 56.5078,10.1328 56.8359,9.74219 C57.1641,9.35156 57.3281,8.83854 57.3281,8.20313 L57.3281,7.96875 L56.3438,7.96875 M58.3125,7.5625 L58.3125,11 L57.3281,11 L57.3281,10.0938 C57.1094,10.4583 56.8307,10.7266 56.4922,10.8984 C56.1536,11.0703 55.7396,11.1563 55.25,11.1563 C54.6354,11.1563 54.1458,10.9844 53.7813,10.6406 C53.4167,10.2969 53.2344,9.83333 53.2344,9.25 C53.2344,8.57292 53.4609,8.0625 53.9141,7.71875 C54.3672,7.375 55.0469,7.20313 55.9531,7.20313 L57.3281,7.20313 L57.3281,7.10938 C57.3281,6.65104 57.1797,6.29688 56.8828,6.04688 C56.5859,5.79688 56.1667,5.67188 55.625,5.67188 C55.2813,5.67188 54.9453,5.71354 54.6172,5.79688 C54.2891,5.88021 53.974,6.00521 53.6719,6.17188 L53.6719,5.26563 C54.0365,5.11979 54.3906,5.01302 54.7344,4.94531 C55.0781,4.8776 55.4063,4.84375 55.7188,4.84375 C56.5938,4.84375 57.2448,5.06771 57.6719,5.51563 C58.099,5.96354 58.3125,6.64583 58.3125,7.5625 M61.3281,3.28125 L61.3281,4.98438 L63.3594,4.98438 L63.3594,5.75 L61.3281,5.75 L61.3281,9.01563 C61.3281,9.50521 61.3958,9.82031 61.5313,9.96094 C61.6667,10.1016 61.9375,10.1719 62.3438,10.1719 L63.3594,10.1719 L63.3594,11 L62.3438,11 C61.5833,11 61.0573,10.8568 60.7656,10.5703 C60.474,10.2839 60.3281,9.76563 60.3281,9.01563 L60.3281,5.75 L59.6094,5.75 L59.6094,4.98438 L60.3281,4.98438 L60.3281,3.28125 L61.3281,3.28125 M67.3906,7.96875 C66.599,7.96875 66.0495,8.0625 65.7422,8.25 C65.4349,8.4375 65.2813,8.75 65.2813,9.1875 C65.2813,9.53125 65.3958,9.80729 65.625,10.0156 C65.8542,10.224 66.1667,10.3281 66.5625,10.3281 C67.1146,10.3281 67.5547,10.1328 67.8828,9.74219 C68.2109,9.35156 68.375,8.83854 68.375,8.20313 L68.375,7.96875 L67.3906,7.96875 M69.3594,7.5625 L69.3594,11 L68.375,11 L68.375,10.0938 C68.1563,10.4583 67.8776,10.7266 67.5391,10.8984 C67.2005,11.0703 66.7865,11.1563 66.2969,11.1563 C65.6823,11.1563 65.1927,10.9844 64.8281,10.6406 C64.4635,10.2969 64.2813,9.83333 64.2813,9.25 C64.2813,8.57292 64.5078,8.0625 64.9609,7.71875 C65.4141,7.375 66.0938,7.20313 67,7.20313 L68.375,7.20313 L68.375,7.10938 C68.375,6.65104 68.2266,6.29688 67.9297,6.04688 C67.6328,5.79688 67.2135,5.67188 66.6719,5.67188 C66.3281,5.67188 65.9922,5.71354 65.6641,5.79688 C65.3359,5.88021 65.0208,6.00521 64.7188,6.17188 L64.7188,5.26563 C65.0833,5.11979 65.4375,5.01302 65.7813,4.94531 C66.125,4.8776 66.4531,4.84375 66.7656,4.84375 C67.6406,4.84375 68.2917,5.06771 68.7188,5.51563 C69.1458,5.96354 69.3594,6.64583 69.3594,7.5625 "/>
</g>

<g fill="none" stroke="#000000" stroke-opacity="1" stroke-width="1" stroke-linecap="square" stroke-linejoin="bevel" transform="matrix(2,0,0,2,451.422,130)"
font-family="sans" font-size="11" font-weight="100" font-style="normal" 
>
</g>

<g fill="none" stroke="#000000" stroke-opacity="1" stroke-width="1" stroke-linecap="square" stroke-linejoin="bevel" transform="matrix(2,0,0,2,451.422,130)"
font-family="Ubuntu" font-size="11" font-weight="400" font-style="normal" 
>
</g>

<g fill="none" stroke="#000000" stroke-opacity="1" stroke-width="1" stroke-linecap="square" stroke-linejoin="bevel" transform="matrix(2,0,0,2,0.0016,180)"
font-family="Ubuntu" font-size="11" font-weight="400" font-style="normal" 
>
</g>

<g fill="none" stroke="#000000" stroke-opacity="1" stroke-width="1" stroke-linecap="square" stroke-linejoin="bevel" transform="matrix(2,0,0,2,0.0016,180)"
font-family="Ubuntu" font-size="11" font-weight="400" font-style="normal" 
>
</g>

<g fill="none" stroke="#000000" stroke-opacity="1" stroke-width="1" stroke-linecap="square" stroke-linejoin="bevel" transform="matrix(2,0,0,2,0.0016,180)"
font-family="Ubuntu" font-size="11" font-weight="400" font-style="normal" 
>
</g>

<g fill="none" stroke="#000000" stroke-opacity="1" stroke-width="1" stroke-linecap="square" stroke-linejoin="round" transform="matrix(2,0,0,2,0.0016,180)"
font-family="Ubuntu" font-size="11" font-weight="400" font-style="normal" 
>
<rect x="0.4992" y="-35.5" width="82.0016" height="35"/>
</g>

<g fill="none" stroke="#000000" stroke-opacity="1" stroke-width="1" stroke-linecap="square" stroke-linejoin="bevel" transform="matrix(2,0,0,2,0.0016,180)"
font-family="Ubuntu" font-size="11" font-weight="400" font-style="normal" 
>
</g>

<g fill="none" stroke="#000000" stroke-opacity="1" stroke-width="1" stroke-linecap="square" stroke-linejoin="bevel" transform="matrix(2,0,0,2,17.5485,130)"
font-family="Ubuntu" font-size="11" font-weight="400" font-style="normal" 
>
</g>

<g fill="none" stroke="#000000" stroke-opacity="1" stroke-width="1" stroke-linecap="square" stroke-linejoin="bevel" transform="matrix(2,0,0,2,17.5485,130)"
font-family="sans" font-size="11" font-weight="100" font-style="normal" 
>
</g>

<g fill="#000000" fill-opacity="1" stroke="#000000" stroke-opacity="1" stroke-width="1" stroke-linecap="square" stroke-linejoin="round" transform="matrix(2,0,0,2,17.5485,130)"
font-family="sans" font-size="11" font-weight="100" font-style="normal" 
>
<path vector-effect="none" fill-rule="nonzero" d="M2.79688,2.98438 L3.70313,2.98438 L0.90625,12.0156 L0,12.0156 L2.79688,2.98438 M4.17188,4.98438 L5.15625,4.98438 L6.39063,9.67188 L7.625,4.98438 L8.78125,4.98438 L10.0156,9.67188 L11.25,4.98438 L12.2344,4.98438 L10.6719,11 L9.5,11 L8.20313,6.0625 L6.90625,11 L5.73438,11 L4.17188,4.98438 M18.7188,7.375 L18.7188,11 L17.7344,11 L17.7344,7.40625 C17.7344,6.83333 17.625,6.40625 17.4063,6.125 C17.1875,5.84375 16.8542,5.70313 16.4063,5.70313 C15.875,5.70313 15.4557,5.8724 15.1484,6.21094 C14.8411,6.54948 14.6875,7.01042 14.6875,7.59375 L14.6875,11 L13.6875,11 L13.6875,2.64063 L14.6875,2.64063 L14.6875,5.92188 C14.9167,5.55729 15.1927,5.28646 15.5156,5.10938 C15.8385,4.93229 16.2083,4.84375 16.625,4.84375 C17.3125,4.84375 17.8333,5.05729 18.1875,5.48438 C18.5417,5.91146 18.7188,6.54167 18.7188,7.375 M25.8438,7.75 L25.8438,8.23438 L21.2969,8.23438 C21.3385,8.91146 21.5417,9.42708 21.9063,9.78125 C22.2708,10.1354 22.7813,10.3125 23.4375,10.3125 C23.8229,10.3125 24.1927,10.2656 24.5469,10.1719 C24.901,10.0781 25.2552,9.94271 25.6094,9.76563 L25.6094,10.6875 C25.2552,10.8438 24.8906,10.9609 24.5156,11.0391 C24.1406,11.1172 23.7656,11.1563 23.3906,11.1563 C22.4219,11.1563 21.6589,10.8776 21.1016,10.3203 C20.5443,9.76302 20.2656,9.00521 20.2656,8.04688 C20.2656,7.06771 20.5313,6.28906 21.0625,5.71094 C21.5938,5.13281 22.3125,4.84375 23.2188,4.84375 C24.0208,4.84375 24.6589,5.10417 25.1328,5.625 C25.6068,6.14583 25.8438,6.85417 25.8438,7.75 M24.8438,7.45313 C24.8438,6.91146 24.6953,6.47917 24.3984,6.15625 C24.1016,5.83333 23.7083,5.67188 23.2188,5.67188 C22.6667,5.67188 22.2266,5.82813 21.8984,6.14063 C21.5703,6.45313 21.3802,6.89063 21.3281,7.45313 L24.8438,7.45313 M32.6094,7.75 L32.6094,8.23438 L28.0625,8.23438 C28.1042,8.91146 28.3073,9.42708 28.6719,9.78125 C29.0365,10.1354 29.5469,10.3125 30.2031,10.3125 C30.5885,10.3125 30.9583,10.2656 31.3125,10.1719 C31.6667,10.0781 32.0208,9.94271 32.375,9.76563 L32.375,10.6875 C32.0208,10.8438 31.6563,10.9609 31.2813,11.0391 C30.9063,11.1172 30.5313,11.1563 30.1563,11.1563 C29.1875,11.1563 28.4245,10.8776 27.8672,10.3203 C27.3099,9.76302 27.0313,9.00521 27.0313,8.04688 C27.0313,7.06771 27.2969,6.28906 27.8281,5.71094 C28.3594,5.13281 29.0781,4.84375 29.9844,4.84375 C30.7865,4.84375 31.4245,5.10417 31.8984,5.625 C32.3724,6.14583 32.6094,6.85417 32.6094,7.75 M31.6094,7.45313 C31.6094,6.91146 31.4609,6.47917 31.1641,6.15625 C30.8672,5.83333 30.474,5.67188 29.9844,5.67188 C29.4323,5.67188 28.9922,5.82813 28.6641,6.14063 C28.3359,6.45313 28.1458,6.89063 28.0938,7.45313 L31.6094,7.45313 M34.2188,2.64063 L35.2188,2.64063 L35.2188,11 L34.2188,11 L34.2188,2.64063 M41.8438,12.8281 L41.8438,13.5938 L36.125,13.5938 L36.125,12.8281 L41.8438,12.8281 M47.0938,5.21875 L47.0938,6.14063 C46.8229,5.98438 46.5469,5.86719 46.2656,5.78906 C45.9844,5.71094 45.6979,5.67188 45.4063,5.67188 C44.7708,5.67188 44.276,5.875 43.9219,6.28125 C43.5677,6.6875 43.3906,7.26042 43.3906,8 C43.3906,8.72917 43.5677,9.29688 43.9219,9.70313 C44.276,10.1094 44.7708,10.3125 45.4063,10.3125 C45.6979,10.3125 45.9844,10.276 46.2656,10.2031 C46.5469,10.1302 46.8229,10.0156 47.0938,9.85938 L47.0938,10.7656 C46.8229,10.901 46.5391,11 46.2422,11.0625 C45.9453,11.125 45.6302,11.1563 45.2969,11.1563 C44.3906,11.1563 43.6719,10.8724 43.1406,10.3047 C42.6094,9.73698 42.3438,8.96875 42.3438,8 C42.3438,7.02083 42.612,6.25 43.1484,5.6875 C43.6849,5.125 44.4219,4.84375 45.3594,4.84375 C45.6719,4.84375 45.9714,4.875 46.2578,4.9375 C46.5443,5 46.8229,5.09375 47.0938,5.21875 M53.5,6.14063 C53.75,5.69271 54.0469,5.36458 54.3906,5.15625 C54.7344,4.94792 55.1406,4.84375 55.6094,4.84375 C56.2344,4.84375 56.7161,5.0625 57.0547,5.5 C57.3932,5.9375 57.5625,6.5625 57.5625,7.375 L57.5625,11 L56.5625,11 L56.5625,7.40625 C56.5625,6.82292 56.4609,6.39323 56.2578,6.11719 C56.0547,5.84115 55.7448,5.70313 55.3281,5.70313 C54.8177,5.70313 54.4141,5.8724 54.1172,6.21094 C53.8203,6.54948 53.6719,7.01042 53.6719,7.59375 L53.6719,11 L52.6719,11 L52.6719,7.40625 C52.6719,6.82292 52.5703,6.39323 52.3672,6.11719 C52.1641,5.84115 51.849,5.70313 51.4219,5.70313 C50.9219,5.70313 50.5234,5.8724 50.2266,6.21094 C49.9297,6.54948 49.7813,7.01042 49.7813,7.59375 L49.7813,11 L48.7813,11 L48.7813,4.98438 L49.7813,4.98438 L49.7813,5.92188 C50,5.54688 50.2682,5.27344 50.5859,5.10156 C50.9036,4.92969 51.276,4.84375 51.7031,4.84375 C52.1406,4.84375 52.513,4.95313 52.8203,5.17188 C53.1276,5.39063 53.3542,5.71354 53.5,6.14063 M63.4844,5.89063 L63.4844,2.64063 L64.4688,2.64063 L64.4688,11 L63.4844,11 L63.4844,10.0938 C63.276,10.4583 63.013,10.7266 62.6953,10.8984 C62.3776,11.0703 61.9948,11.1563 61.5469,11.1563 C60.8281,11.1563 60.2396,10.8672 59.7813,10.2891 C59.3229,9.71094 59.0938,8.94792 59.0938,8 C59.0938,7.05208 59.3229,6.28906 59.7813,5.71094 C60.2396,5.13281 60.8281,4.84375 61.5469,4.84375 C61.9948,4.84375 62.3776,4.92969 62.6953,5.10156 C63.013,5.27344 63.276,5.53646 63.4844,5.89063 M60.1094,8 C60.1094,8.72917 60.2604,9.29948 60.5625,9.71094 C60.8646,10.1224 61.276,10.3281 61.7969,10.3281 C62.3177,10.3281 62.7292,10.1224 63.0313,9.71094 C63.3333,9.29948 63.4844,8.72917 63.4844,8 C63.4844,7.27083 63.3333,6.70052 63.0313,6.28906 C62.7292,5.8776 62.3177,5.67188 61.7969,5.67188 C61.276,5.67188 60.8646,5.8776 60.5625,6.28906 C60.2604,6.70052 60.1094,7.27083 60.1094,8 "/>
</g>

<g fill="none" stroke="#000000" stroke-opacity="1" stroke-width="1" stroke-linecap="square" stroke-linejoin="bevel" transform="matrix(2,0,0,2,17.5485,130)"
font-family="sans" font-size="11" font-weight="100" font-style="normal" 
>
</g>

<g fill="none" stroke="#000000" stroke-opacity="1" stroke-width="1" stroke-linecap="square" stroke-linejoin="bevel" transform="matrix(2,0,0,2,17.5485,130)"
font-family="Ubuntu" font-size="11" font-weight="400" font-style="normal" 
>
</g>

<g fill="none" stroke="#000000" stroke-opacity="1" stroke-width="1" stroke-linecap="square" stroke-linejoin="bevel" transform="matrix(2,0,0,2,0.0016,180)"
font-family="Ubuntu" font-size="11" font-weight="400" font-style="normal" 
>
</g>

<g fill="none" stroke="#000000" stroke-opacity="1" stroke-width="1" stroke-linecap="square" stroke-linejoin="bevel" transform="matrix(2,0,0,2,0.0016,180)"
font-family="Ubuntu" font-size="11" font-weight="400" font-style="normal" 
>
</g>

<g fill="none" stroke="#000000" stroke-opacity="1" stroke-width="1" stroke-linecap="square" stroke-linejoin="bevel" transform="matrix(2,0,0,2,0.0016,180)"
font-family="Ubuntu" font-size="11" font-weight="400" font-style="normal" 
>
</g>

<g fill="none" stroke="#000000" stroke-opacity="1" stroke-width="1" stroke-linecap="square" stroke-linejoin="round" transform="matrix(2,0,0,2,0.0016,180)"
font-family="Ubuntu" font-size="11" font-weight="400" font-style="normal" 
>
<path vector-effect="none" fill-rule="evenodd" d="M194.4,-34.329 C199.17,-33.156 204.07,-31.954 208.94,-30.759 "/>
</g>

<g fill="none" stroke="#000000" stroke-opacity="1" stroke-width="1" stroke-linecap="square" stroke-linejoin="bevel" transform="matrix(2,0,0,2,0.0016,180)"
font-family="Ubuntu" font-size="11" font-weight="400" font-style="normal" 
>
</g>

<g fill="none" stroke="#000000" stroke-opacity="1" stroke-width="1" stroke-linecap="square" stroke-linejoin="bevel" transform="matrix(2,0,0,2,0.0016,180)"
font-family="Ubuntu" font-size="11" font-weight="400" font-style="normal" 
>
</g>

<g fill="#000000" fill-opacity="1" stroke="#000000" stroke-opacity="1" stroke-width="1" stroke-linecap="square" stroke-linejoin="round" transform="matrix(2,0,0,2,0.0016,180)"
font-family="Ubuntu" font-size="11" font-weight="400" font-style="normal" 
>
<path vector-effect="none" fill-rule="evenodd" d="M208.94,-30.759 L208.089,-27.2975 L218.83,-28.329 L209.791,-34.2205 L208.94,-30.759"/>
</g>

<g fill="none" stroke="#000000" stroke-opacity="1" stroke-width="1" stroke-linecap="square" stroke-linejoin="bevel" transform="matrix(2,0,0,2,0.0016,180)"
font-family="Ubuntu" font-size="11" font-weight="400" font-style="normal" 
>
</g>

<g fill="none" stroke="#000000" stroke-opacity="1" stroke-width="1" stroke-linecap="square" stroke-linejoin="bevel" transform="matrix(2,0,0,2,0.0016,180)"
font-family="Ubuntu" font-size="11" font-weight="400" font-style="normal" 
>
</g>

<g fill="none" stroke="#000000" stroke-opacity="1" stroke-width="1" stroke-linecap="square" stroke-linejoin="bevel" transform="matrix(2,0,0,2,0.0016,180)"
font-family="Ubuntu" font-size="11" font-weight="400" font-style="normal" 
>
</g>

<g fill="none" stroke="#000000" stroke-opacity="1" stroke-width="1" stroke-linecap="square" stroke-linejoin="bevel" transform="matrix(2,0,0,2,0.0016,180)"
font-family="Ubuntu" font-size="11" font-weight="400" font-style="normal" 
>
</g>

<g fill="none" stroke="#000000" stroke-opacity="1" stroke-width="1" stroke-linecap="square" stroke-linejoin="round" transform="matrix(2,0,0,2,0.0016,180)"
font-family="Ubuntu" font-size="11" font-weight="400" font-style="normal" 
>
<path vector-effect="none" fill-rule="evenodd" d="M194.4,-55.671 C199.59,-56.947 204.93,-58.257 210.21,-59.555 "/>
</g>

<g fill="none" stroke="#000000" stroke-opacity="1" stroke-width="1" stroke-linecap="square" stroke-linejoin="bevel" transform="matrix(2,0,0,2,0.0016,180)"
font-family="Ubuntu" font-size="11" font-weight="400" font-style="normal" 
>
</g>

<g fill="none" stroke="#000000" stroke-opacity="1" stroke-width="1" stroke-linecap="square" stroke-linejoin="bevel" transform="matrix(2,0,0,2,0.0016,180)"
font-family="Ubuntu" font-size="11" font-weight="400" font-style="normal" 
>
</g>

<g fill="#000000" fill-opacity="1" stroke="#000000" stroke-opacity="1" stroke-width="1" stroke-linecap="square" stroke-linejoin="round" transform="matrix(2,0,0,2,0.0016,180)"
font-family="Ubuntu" font-size="11" font-weight="400" font-style="normal" 
>
<path vector-effect="none" fill-rule="evenodd" d="M210.21,-59.555 L211.073,-56.0375 L220.26,-62.022 L209.347,-63.0725 L210.21,-59.555"/>
</g>

<g fill="none" stroke="#000000" stroke-opacity="1" stroke-width="1" stroke-linecap="square" stroke-linejoin="bevel" transform="matrix(2,0,0,2,0.0016,180)"
font-family="Ubuntu" font-size="11" font-weight="400" font-style="normal" 
>
</g>

<g fill="none" stroke="#000000" stroke-opacity="1" stroke-width="1" stroke-linecap="square" stroke-linejoin="bevel" transform="matrix(2,0,0,2,0.0016,180)"
font-family="Ubuntu" font-size="11" font-weight="400" font-style="normal" 
>
</g>

<g fill="none" stroke="#000000" stroke-opacity="1" stroke-width="1" stroke-linecap="square" stroke-linejoin="bevel" transform="matrix(2,0,0,2,0.0016,180)"
font-family="Ubuntu" font-size="11" font-weight="400" font-style="normal" 
>
</g>

<g fill="none" stroke="#000000" stroke-opacity="1" stroke-width="1" stroke-linecap="square" stroke-linejoin="bevel" transform="matrix(2,0,0,2,0.0016,180)"
font-family="Ubuntu" font-size="11" font-weight="400" font-style="normal" 
>
</g>

<g fill="none" stroke="#000000" stroke-opacity="1" stroke-width="1" stroke-linecap="square" stroke-linejoin="round" transform="matrix(2,0,0,2,0.0016,180)"
font-family="Ubuntu" font-size="11" font-weight="400" font-style="normal" 
>
<path vector-effect="none" fill-rule="evenodd" d="M83.189,-28.285 C87.923,-29.453 92.796,-30.655 97.654,-31.853 "/>
</g>

<g fill="none" stroke="#000000" stroke-opacity="1" stroke-width="1" stroke-linecap="square" stroke-linejoin="bevel" transform="matrix(2,0,0,2,0.0016,180)"
font-family="Ubuntu" font-size="11" font-weight="400" font-style="normal" 
>
</g>

<g fill="none" stroke="#000000" stroke-opacity="1" stroke-width="1" stroke-linecap="square" stroke-linejoin="bevel" transform="matrix(2,0,0,2,0.0016,180)"
font-family="Ubuntu" font-size="11" font-weight="400" font-style="normal" 
>
</g>

<g fill="#000000" fill-opacity="1" stroke="#000000" stroke-opacity="1" stroke-width="1" stroke-linecap="square" stroke-linejoin="round" transform="matrix(2,0,0,2,0.0016,180)"
font-family="Ubuntu" font-size="11" font-weight="400" font-style="normal" 
>
<path vector-effect="none" fill-rule="evenodd" d="M97.654,-31.853 L98.5091,-28.3894 L107.55,-34.296 L96.7989,-35.3166 L97.654,-31.853"/>
</g>

<g fill="none" stroke="#000000" stroke-opacity="1" stroke-width="1" stroke-linecap="square" stroke-linejoin="bevel" transform="matrix(2,0,0,2,0.0016,180)"
font-family="Ubuntu" font-size="11" font-weight="400" font-style="normal" 
>
</g>

<g fill="none" stroke="#000000" stroke-opacity="1" stroke-width="1" stroke-linecap="square" stroke-linejoin="bevel" transform="matrix(2,0,0,2,0.0016,180)"
font-family="Ubuntu" font-size="11" font-weight="400" font-style="normal" 
>
</g>

<g fill="none" stroke="#000000" stroke-opacity="1" stroke-width="1" stroke-linecap="square" stroke-linejoin="bevel" transform="matrix(2,0,0,2,0.0016,180)"
font-family="Ubuntu" font-size="11" font-weight="400" font-style="normal" 
>
</g>

<g fill="none" stroke="#000000" stroke-opacity="1" stroke-width="1" stroke-linecap="square" stroke-linejoin="bevel" transform="matrix(2,0,0,2,0.0016,180)"
font-family="Ubuntu" font-size="11" font-weight="400" font-style="normal" 
>
</g>

<g fill="none" stroke="#000000" stroke-opacity="1" stroke-width="1" stroke-linecap="square" stroke-linejoin="round" transform="matrix(2,0,0,2,0.0016,180)"
font-family="Ubuntu" font-size="11" font-weight="400" font-style="normal" 
>
<path vector-effect="none" fill-rule="evenodd" d="M68.554,-65.326 C77.289,-63.171 87.301,-60.701 97.267,-58.242 "/>
</g>

<g fill="none" stroke="#000000" stroke-opacity="1" stroke-width="1" stroke-linecap="square" stroke-linejoin="bevel" transform="matrix(2,0,0,2,0.0016,180)"
font-family="Ubuntu" font-size="11" font-weight="400" font-style="normal" 
>
</g>

<g fill="none" stroke="#000000" stroke-opacity="1" stroke-width="1" stroke-linecap="square" stroke-linejoin="bevel" transform="matrix(2,0,0,2,0.0016,180)"
font-family="Ubuntu" font-size="11" font-weight="400" font-style="normal" 
>
</g>

<g fill="#000000" fill-opacity="1" stroke="#000000" stroke-opacity="1" stroke-width="1" stroke-linecap="square" stroke-linejoin="round" transform="matrix(2,0,0,2,0.0016,180)"
font-family="Ubuntu" font-size="11" font-weight="400" font-style="normal" 
>
<path vector-effect="none" fill-rule="evenodd" d="M97.267,-58.242 L96.4123,-54.7759 L107.17,-55.8 L98.1217,-61.7081 L97.267,-58.242"/>
</g>

<g fill="none" stroke="#000000" stroke-opacity="1" stroke-width="1" stroke-linecap="square" stroke-linejoin="bevel" transform="matrix(2,0,0,2,0.0016,180)"
font-family="Ubuntu" font-size="11" font-weight="400" font-style="normal" 
>
</g>

<g fill="none" stroke="#000000" stroke-opacity="1" stroke-width="1" stroke-linecap="square" stroke-linejoin="bevel" transform="matrix(1,0,0,1,0,0)"
font-family="Ubuntu" font-size="11" font-weight="400" font-style="normal" 
>
</g>
</g>
</svg>
